<?xml version="1.0" standalone="no"?>
<!DOCTYPE svg PUBLIC "-//W3C//DTD SVG 20010904//EN"
 "http://www.w3.org/TR/2001/REC-SVG-20010904/DTD/svg10.dtd">
<svg version="1.0" xmlns="http://www.w3.org/2000/svg"
 width="621.000000pt" height="621.000000pt" viewBox="0 0 621.000000 621.000000"
 preserveAspectRatio="xMidYMid meet">
<metadata>
Created by potrace 1.11, written by Peter Selinger 2001-2013
</metadata>
<g transform="translate(0.000000,621.000000) scale(0.100000,-0.100000)"
fill="#000000" stroke="none">
<path d="M2780 6199 c-247 -25 -571 -105 -813 -201 -1081 -425 -1843 -1432
-1957 -2587 -13 -133 -13 -479 0 -612 54 -550 275 -1120 601 -1551 482 -638
1152 -1053 1944 -1204 149 -29 152 -29 550 -29 398 0 401 0 550 29 792 151
1462 566 1944 1204 326 431 547 1001 601 1551 13 133 13 479 0 612 -37 373
-152 765 -325 1104 -479 942 -1414 1581 -2464 1685 -121 12 -509 11 -631 -1z"/>
</g>
</svg>
